<svg width="27" height="29" viewBox="0 0 27 29" fill="none" xmlns="http://www.w3.org/2000/svg">
<g clip-path="url(#clip0)">
<path fill-rule="evenodd" clip-rule="evenodd" d="M1 8C1.55228 8 2 8.44772 2 9V14H7C7.55228 14 8 14.4477 8 15C8 15.5523 7.55228 16 7 16H1C0.447715 16 0 15.5523 0 15V9C0 8.44772 0.447715 8 1 8Z" fill="currentColor"
                            className="fa-secondary"/>
<path fill-rule="evenodd" clip-rule="evenodd" d="M16 19C16 18.4477 16.4477 18 17 18H23C23.5523 18 24 18.4477 24 19V25C24 25.5523 23.5523 26 23 26C22.4477 26 22 25.5523 22 25V20H17C16.4477 20 16 19.5523 16 19Z" fill="currentColor"
                            className="fa-secondary"/>
<path fill-rule="evenodd" clip-rule="evenodd" d="M9.22695 7.39615C10.8497 6.92678 12.5648 6.87613 14.2124 7.24891C15.86 7.6217 17.3863 8.40577 18.6489 9.52798C19.9115 10.6502 20.8692 12.0739 21.4327 13.6664C21.617 14.1871 21.3442 14.7585 20.8236 14.9427C20.3029 15.127 19.7315 14.8542 19.5473 14.3336C19.0965 13.0596 18.3303 11.9206 17.3202 11.0229C16.3101 10.1251 15.0891 9.49783 13.771 9.1996C12.453 8.90137 11.0808 8.9419 9.78267 9.31739C8.4845 9.69289 7.30261 10.3911 6.34728 11.3469C6.3399 11.3543 6.33239 11.3616 6.32478 11.3688L1.68478 15.7288C1.2823 16.1069 0.649439 16.0873 0.271247 15.6848C-0.106945 15.2823 -0.0872557 14.6494 0.315224 14.2712L4.9441 9.9217C6.13626 8.73277 7.60939 7.86403 9.22695 7.39615ZM23.7288 18.3152C24.1069 18.7177 24.0873 19.3506 23.6848 19.7288L19.0559 24.0783C17.8637 25.2672 16.3906 26.136 14.7731 26.6038C13.1503 27.0732 11.4352 27.1239 9.7876 26.7511C8.14002 26.3783 6.61373 25.5942 5.35114 24.472C4.08854 23.3498 3.1308 21.9261 2.56728 20.3336C2.38304 19.8129 2.65576 19.2415 3.1764 19.0573C3.69705 18.873 4.26848 19.1458 4.45272 19.6664C4.90353 20.9404 5.66972 22.0794 6.6798 22.9771C7.68987 23.8749 8.91091 24.5022 10.229 24.8004C11.547 25.0986 12.9192 25.0581 14.2173 24.6826C15.5155 24.3071 16.6974 23.6089 17.6527 22.6531C17.6572 22.6486 17.6616 22.6442 17.6662 22.6399C17.6692 22.637 17.6722 22.6341 17.6752 22.6312L22.3152 18.2712C22.7177 17.8931 23.3506 17.9127 23.7288 18.3152Z" fill="currentColor"
                            className="fa-secondary"/>
</g>
<path fill-rule="evenodd" clip-rule="evenodd" d="M22 1.66667C22.2301 1.66667 22.4167 1.85322 22.4167 2.08333V7.91667C22.4167 8.14679 22.2301 8.33333 22 8.33333C21.7699 8.33333 21.5833 8.14679 21.5833 7.91667V2.08333C21.5833 1.85322 21.7699 1.66667 22 1.66667Z" fill="currentColor"
                            className="fa-secondary"/>
<path fill-rule="evenodd" clip-rule="evenodd" d="M18.6667 5C18.6667 4.76988 18.8532 4.58333 19.0833 4.58333H24.9167C25.1468 4.58333 25.3333 4.76988 25.3333 5C25.3333 5.23012 25.1468 5.41667 24.9167 5.41667H19.0833C18.8532 5.41667 18.6667 5.23012 18.6667 5Z" fill="currentColor"
                            className="fa-secondary"/>
<defs>
<clipPath id="clip0">
<path d="M0 5H24V29H0V5Z" fill="white"/>
</clipPath>
</defs>
</svg>
