<svg width="25" height="29" viewBox="0 0 25 29" fill="none" xmlns="http://www.w3.org/2000/svg">
<path fill-rule="evenodd" clip-rule="evenodd" d="M11.9996 6.69C12.2649 6.68989 12.5195 6.79525 12.7071 6.9829L18.3669 12.6427C18.367 12.6427 18.3668 12.6426 18.3669 12.6427C19.626 13.9011 20.4839 15.5048 20.8316 17.2507C21.1794 18.9967 21.0015 20.8066 20.3205 22.4515C19.6395 24.0964 18.4859 25.5023 17.0057 26.4915C15.5256 27.4807 13.7853 28.0087 12.005 28.0087C10.2247 28.0087 8.48443 27.4807 7.00426 26.4915C5.52409 25.5023 4.37054 24.0964 3.68952 22.4515C3.00851 20.8066 2.83062 18.9967 3.17837 17.2507C3.52606 15.505 4.38359 13.9016 5.64253 12.6433C5.64273 12.6431 5.64233 12.6435 5.64253 12.6433L11.2923 6.98352C11.4797 6.79571 11.7342 6.69012 11.9996 6.69ZM12.0006 9.10484L7.05688 14.0573C6.07745 15.0361 5.41031 16.2834 5.13984 17.6414C4.86937 18.9994 5.00773 20.4071 5.53741 21.6864C6.06708 22.9658 6.96429 24.0593 8.11553 24.8287C9.26678 25.5981 10.6203 26.0087 12.005 26.0087C13.3897 26.0087 14.7432 25.5981 15.8945 24.8287C17.0457 24.0593 17.9429 22.9658 18.4726 21.6864C19.0023 20.4071 19.1406 18.9994 18.8702 17.6414C18.5997 16.2834 17.9326 15.0361 16.9531 14.0573L12.0006 9.10484Z" fill="currentColor"
                            className="fa-secondary"/>
<path fill-rule="evenodd" clip-rule="evenodd" d="M20 1.66666C20.2301 1.66666 20.4167 1.85321 20.4167 2.08333V7.91666C20.4167 8.14678 20.2301 8.33333 20 8.33333C19.7699 8.33333 19.5833 8.14678 19.5833 7.91666V2.08333C19.5833 1.85321 19.7699 1.66666 20 1.66666Z" fill="currentColor"
                            className="fa-secondary"/>
<path fill-rule="evenodd" clip-rule="evenodd" d="M16.6667 5C16.6667 4.76988 16.8532 4.58334 17.0833 4.58334H22.9167C23.1468 4.58334 23.3333 4.76988 23.3333 5C23.3333 5.23012 23.1468 5.41667 22.9167 5.41667H17.0833C16.8532 5.41667 16.6667 5.23012 16.6667 5Z" fill="currentColor"
                            className="fa-secondary"/>
</svg>
