 <svg
                        viewBox="0 -23 512.0001 512"
                        xmlns="http://www.w3.org/2000/svg"
                    >
                        <path
                            fill="currentColor"
                            d="m268.675781 136.671875c-2.75-4.34375-7.53125-6.980469-12.675781-6.980469s-9.925781 2.636719-12.675781 6.980469c-.585938.925781-14.515625 22.988281-28.667969 49.3125-29.921875 55.648437-29.921875 73.25-29.921875 79.035156 0 39.601563 31.96875 71.816407 71.265625 71.816407s71.265625-32.214844 71.265625-71.816407c0-5.785156 0-23.386719-29.921875-79.035156-14.15625-26.324219-28.082031-48.386719-28.667969-49.3125zm-12.675781 170.167969c-22.753906 0-41.265625-18.761719-41.265625-41.820313 0-15.289062 21.257813-57.296875 41.265625-91.445312 20.003906 34.148437 41.265625 76.15625 41.265625 91.445312 0 23.058594-18.511719 41.820313-41.265625 41.820313zm0 0"
                            className="fa-primary"
                        />
                        <path
                            fill="currentColor"
                            d="m508.566406 285.425781-31.984375-38.722656c-4.78125-5.789063-13.105469-7.148437-19.484375-3.1875l-42.226562 26.25c-7.035156 4.375-9.191406 13.625-4.820313 20.660156 4.375 7.035157 13.621094 9.191407 20.660157 4.820313l13.421874-8.34375c-11.140624 41.464844-35.125 78.730468-69.464843 107.148437-48.4375 40.082031-112.542969 52.785157-171.472657 33.980469-36.628906-11.6875-67.5625-31.753906-91.941406-59.644531-22.65625-25.917969-38.476562-57.777344-45.746094-92.125-1.714843-8.105469-9.671874-13.285157-17.78125-11.570313-8.105468 1.714844-13.285156 9.675782-11.570312 17.78125 17.589844 83.101563 76.621094 148.199219 157.917969 174.140625 20.960937 6.6875 42.464843 9.960938 63.84375 9.960938 48.703125 0 96.714843-17.007813 135.875-49.410157 40.253906-33.3125 68.054687-77.339843 80.324219-126.335937l11.316406 13.703125c2.964844 3.59375 7.253906 5.449219 11.574218 5.449219 3.363282 0 6.75-1.125 9.542969-3.433594 6.386719-5.277344 7.289063-14.730469 2.015625-21.121094zm0 0"
                            className="fa-secondary"
                        />
                        <path
                            fill="currentColor"
                            d="m46.992188 226.421875c2.714843 0 5.457031-.738281 7.910156-2.261719l42.226562-26.25c7.035156-4.375 9.191406-13.625 4.820313-20.660156-4.375-7.035156-13.625-9.191406-20.660157-4.820312l-13.839843 8.605468c9.582031-37.566406 29.53125-71.363281 58.703125-99.023437 25.921875-24.585938 57.867187-41.289063 92.378906-48.304688 34.527344-7.019531 70.109375-4.023437 102.898438 8.660157 33.175781 12.835937 61.171874 32.90625 83.214843 59.652343 20.601563 25 35.117188 55.277344 41.976563 87.554688 1.722656 8.105469 9.691406 13.277343 17.792968 11.554687 8.101563-1.722656 13.273438-9.6875 11.550782-17.789062-7.855469-36.980469-24.511719-71.695313-48.167969-100.398438-25.359375-30.773437-57.503906-53.839844-95.542969-68.554687-38.148437-14.757813-79.539062-18.242188-119.699218-10.082031-40.023438 8.140624-77.039063 27.480468-107.046876 55.9375-21.546874 20.433593-38.839843 44.082031-51.402343 70.292968-7.089844 14.792969-12.570313 30.199219-16.421875 46.066406l-11.117188-13.460937c-5.277344-6.386719-14.730468-7.289063-21.117187-2.011719-6.386719 5.273438-7.289063 14.730469-2.015625 21.117188l31.984375 38.722656c2.941406 3.566406 7.226562 5.453125 11.574219 5.453125zm0 0"
                            className="fa-secondary"
                        />
                    </svg>