<svg width="24" height="25" viewBox="0 0 24 25" fill="none" xmlns="http://www.w3.org/2000/svg">
<path fill-rule="evenodd" clip-rule="evenodd" d="M11.9996 2.69C12.2649 2.68988 12.5195 2.79525 12.7071 2.98289L18.3669 8.64266C18.367 8.64274 18.3668 8.64258 18.3669 8.64266C19.626 9.90106 20.4839 11.5048 20.8316 13.2507C21.1794 14.9967 21.0015 16.8066 20.3205 18.4515C19.6395 20.0964 18.4859 21.5023 17.0057 22.4915C15.5256 23.4807 13.7853 24.0087 12.005 24.0087C10.2247 24.0087 8.48443 23.4807 7.00426 22.4915C5.52409 21.5023 4.37054 20.0964 3.68952 18.4515C3.00851 16.8066 2.83062 14.9967 3.17837 13.2507C3.52606 11.505 4.38359 9.90161 5.64253 8.64326C5.64273 8.64306 5.64233 8.64346 5.64253 8.64326L11.2923 2.98352C11.4797 2.79571 11.7342 2.69012 11.9996 2.69ZM12.0006 5.10484L7.05688 10.0573C6.07745 11.0361 5.41031 12.2834 5.13984 13.6414C4.86937 14.9994 5.00773 16.4071 5.53741 17.6864C6.06708 18.9658 6.96429 20.0593 8.11553 20.8287C9.26678 21.598 10.6203 22.0087 12.005 22.0087C13.3897 22.0087 14.7432 21.598 15.8945 20.8287C17.0457 20.0593 17.9429 18.9658 18.4726 17.6864C19.0023 16.4071 19.1406 14.9994 18.8702 13.6414C18.5997 12.2834 17.9326 11.0361 16.9531 10.0573L12.0006 5.10484Z" fill="currentColor"
                            className="fa-secondary"/>
<path fill-rule="evenodd" clip-rule="evenodd" d="M22.2357 1.7643C22.3659 1.89447 22.3659 2.10553 22.2357 2.2357L18.2357 6.2357C18.1055 6.36588 17.8945 6.36588 17.7643 6.2357C17.6341 6.10553 17.6341 5.89447 17.7643 5.7643L21.7643 1.7643C21.8945 1.63412 22.1055 1.63412 22.2357 1.7643Z" fill="currentColor"
                            className="fa-secondary"/>
<path fill-rule="evenodd" clip-rule="evenodd" d="M17.7643 1.7643C17.8945 1.63412 18.1055 1.63412 18.2357 1.7643L22.2357 5.7643C22.3659 5.89447 22.3659 6.10553 22.2357 6.2357C22.1055 6.36588 21.8945 6.36588 21.7643 6.2357L17.7643 2.2357C17.6341 2.10553 17.6341 1.89447 17.7643 1.7643Z" fill="currentColor"
                            className="fa-secondary"/>
</svg>
