<svg width="28" height="28" viewBox="0 0 28 28" fill="none" xmlns="http://www.w3.org/2000/svg">
<g clip-path="url(#clip0)">
<path fill-rule="evenodd" clip-rule="evenodd" d="M1 7C1.55228 7 2 7.44772 2 8V13H7C7.55228 13 8 13.4477 8 14C8 14.5523 7.55228 15 7 15H1C0.447715 15 0 14.5523 0 14V8C0 7.44772 0.447715 7 1 7Z" fill="currentColor"
                            className="fa-secondary"/>
<path fill-rule="evenodd" clip-rule="evenodd" d="M16 18C16 17.4477 16.4477 17 17 17H23C23.5523 17 24 17.4477 24 18V24C24 24.5523 23.5523 25 23 25C22.4477 25 22 24.5523 22 24V19H17C16.4477 19 16 18.5523 16 18Z" fill="currentColor"
                            className="fa-secondary"/>
<path fill-rule="evenodd" clip-rule="evenodd" d="M9.22695 6.39615C10.8497 5.92678 12.5648 5.87613 14.2124 6.24891C15.86 6.6217 17.3863 7.40577 18.6489 8.52798C19.9115 9.65018 20.8692 11.0739 21.4327 12.6664C21.617 13.1871 21.3442 13.7585 20.8236 13.9427C20.3029 14.127 19.7315 13.8542 19.5473 13.3336C19.0965 12.0596 18.3303 10.9206 17.3202 10.0229C16.3101 9.12509 15.0891 8.49783 13.771 8.1996C12.453 7.90137 11.0808 7.9419 9.78267 8.31739C8.4845 8.69289 7.30261 9.39112 6.34728 10.3469C6.33989 10.3543 6.33239 10.3616 6.32478 10.3688L1.68478 14.7288C1.2823 15.1069 0.649438 15.0873 0.271246 14.6848C-0.106945 14.2823 -0.0872566 13.6494 0.315223 13.2712L4.9441 8.9217C6.13626 7.73277 7.60939 6.86403 9.22695 6.39615ZM23.7288 17.3152C24.1069 17.7177 24.0873 18.3506 23.6848 18.7288L19.0559 23.0783C17.8637 24.2672 16.3906 25.136 14.7731 25.6038C13.1503 26.0732 11.4352 26.1239 9.7876 25.7511C8.14002 25.3783 6.61373 24.5942 5.35113 23.472C4.08854 22.3498 3.1308 20.9261 2.56728 19.3336C2.38304 18.8129 2.65576 18.2415 3.1764 18.0573C3.69705 17.873 4.26848 18.1458 4.45272 18.6664C4.90353 19.9404 5.66972 21.0794 6.6798 21.9771C7.68987 22.8749 8.91091 23.5022 10.229 23.8004C11.547 24.0986 12.9192 24.0581 14.2173 23.6826C15.5155 23.3071 16.6974 22.6089 17.6527 21.6531C17.6572 21.6486 17.6616 21.6442 17.6662 21.6399C17.6692 21.637 17.6722 21.6341 17.6752 21.6312L22.3152 17.2712C22.7177 16.8931 23.3506 16.9127 23.7288 17.3152Z" fill="currentColor"
                            className="fa-secondary"/>
</g>
<path fill-rule="evenodd" clip-rule="evenodd" d="M26.2357 1.7643C26.3659 1.89447 26.3659 2.10552 26.2357 2.2357L22.2357 6.2357C22.1055 6.36587 21.8945 6.36587 21.7643 6.2357C21.6341 6.10553 21.6341 5.89447 21.7643 5.7643L25.7643 1.7643C25.8945 1.63412 26.1055 1.63412 26.2357 1.7643Z" fill="currentColor"
                            className="fa-secondary"/>
<path fill-rule="evenodd" clip-rule="evenodd" d="M21.7643 1.7643C21.8945 1.63412 22.1055 1.63412 22.2357 1.7643L26.2357 5.7643C26.3659 5.89447 26.3659 6.10553 26.2357 6.2357C26.1055 6.36587 25.8945 6.36587 25.7643 6.2357L21.7643 2.2357C21.6341 2.10552 21.6341 1.89447 21.7643 1.7643Z" fill="currentColor"
                            className="fa-secondary"/>
<defs>
<clipPath id="clip0">
<path d="M0 4H24V28H0V4Z" fill="white"/>
</clipPath>
</defs>
</svg>
