<svg
                        width="42"
                        height="28"
                        viewBox="0 0 42 28"
                        fill="currentColor"
                        xmlns="http://www.w3.org/2000/svg"
                    >
                        <path
                            d="M13.016 0.552C17.336 0.552 20.632 1.544 22.904 3.528C25.176 5.48 26.312 8.488 26.312 12.552V27H17.816V23.64C16.504 26.168 13.944 27.432 10.136 27.432C8.12 27.432 6.376 27.08 4.904 26.376C3.432 25.672 2.312 24.728 1.544 23.544C0.808 22.328 0.44 20.952 0.44 19.416C0.44 16.952 1.384 15.048 3.272 13.704C5.16 12.328 8.072 11.64 12.008 11.64H17.192C17.032 8.888 15.192 7.512 11.672 7.512C10.424 7.512 9.16 7.72 7.88 8.136C6.6 8.52 5.512 9.064 4.616 9.768L1.544 3.576C2.984 2.616 4.728 1.88 6.776 1.368C8.856 0.823999 10.936 0.552 13.016 0.552ZM12.68 21.672C13.736 21.672 14.664 21.416 15.464 20.904C16.264 20.392 16.84 19.64 17.192 18.648V16.392H13.256C10.6 16.392 9.272 17.272 9.272 19.032C9.272 19.832 9.576 20.472 10.184 20.952C10.792 21.432 11.624 21.672 12.68 21.672ZM35.9086 27.432C34.3726 27.432 33.0766 26.92 32.0206 25.896C30.9646 24.872 30.4366 23.576 30.4366 22.008C30.4366 20.408 30.9486 19.112 31.9726 18.12C33.0286 17.128 34.3406 16.632 35.9086 16.632C37.5086 16.632 38.8206 17.128 39.8446 18.12C40.8686 19.112 41.3806 20.408 41.3806 22.008C41.3806 23.576 40.8526 24.872 39.7966 25.896C38.7726 26.92 37.4766 27.432 35.9086 27.432Z"
                            fill="black"
                        />
                    </svg>