<svg width="120" height="120" viewBox="0 0 120 120" fill="none" xmlns="http://www.w3.org/2000/svg">
<rect width="120" height="120" fill="white"/>
<path d="M102.426 17.5737C91.0941 6.24117 76.0266 0 60 0C43.9734 0 28.9059 6.24117 17.5737 17.5737C6.24094 28.9059 0 43.9734 0 60C0 76.0266 6.24094 91.0941 17.5737 102.426C28.9059 113.759 43.9734 120 60 120C76.0266 120 91.0941 113.759 102.426 102.426C113.759 91.0941 120 76.0266 120 60C120 43.9734 113.759 28.9059 102.426 17.5737ZM60 112.857C30.8545 112.857 7.14281 89.1455 7.14281 60C7.14281 30.8545 30.8545 7.14281 60 7.14281C89.1455 7.14281 112.857 30.8545 112.857 60C112.857 89.1455 89.1455 112.857 60 112.857Z" fill="black" fill-opacity="0.6"/>
<path d="M47.0208 44.1555C41.1724 38.3067 31.6561 38.3071 25.8077 44.1555C24.413 45.55 24.413 47.8115 25.8077 49.2063C27.2027 50.6008 29.4642 50.6008 30.8588 49.2063C33.9225 46.1428 38.9072 46.143 41.9705 49.2063C42.668 49.9038 43.5818 50.2525 44.4956 50.2525C45.4095 50.2525 46.3238 49.9038 47.0208 49.2063C48.4156 47.8115 48.4156 45.5503 47.0208 44.1555Z" fill="black" fill-opacity="0.6"/>
<path d="M94.1916 44.1555C88.3432 38.3071 78.8269 38.3067 72.9785 44.1555C71.5838 45.55 71.5838 47.8115 72.9785 49.2063C74.3735 50.6008 76.635 50.6008 78.0295 49.2063C81.0928 46.1428 86.0775 46.1425 89.1413 49.2063C89.8388 49.9038 90.7526 50.2525 91.6664 50.2525C92.5802 50.2525 93.4945 49.9038 94.1916 49.2063C95.5863 47.8115 95.5863 45.5503 94.1916 44.1555Z" fill="black" fill-opacity="0.6"/>
<path d="M91.6666 62.6191H28.3334C26.3609 62.6191 24.762 64.2183 24.762 66.1905C24.762 85.6207 40.5698 101.429 60 101.429C79.4302 101.429 95.238 85.6207 95.238 66.1905C95.238 64.218 93.6391 62.6191 91.6666 62.6191ZM60 94.2858C45.7177 94.2858 33.8902 83.5741 32.1307 69.762H87.8695C86.1098 83.5741 74.2823 94.2858 60 94.2858Z" fill="black" fill-opacity="0.6"/>
</svg>
